HIERARCHY
ROOT SpineBase
{
  OFFSET 0.000000 0.000000 0.000000
  CHANNELS 6 Xposition Yposition Zposition Zrotation Xrotation Yrotation
  JOINT SpineMid
  {
    OFFSET -0.000000 32.009310 0.000000
    CHANNELS 3 Zrotation Xrotation Yrotation
    JOINT SpineShoulder
    {
      OFFSET 0.122307 23.750933 -0.700052
      CHANNELS 3 Zrotation Xrotation Yrotation
      JOINT Neck
      {
        OFFSET 0.089398 7.854479 -0.552416
        CHANNELS 3 Zrotation Xrotation Yrotation
        JOINT Head
        {
          OFFSET -5.862015 12.277007 1.774791
          CHANNELS 3 Zrotation Xrotation Yrotation
          End Site
          {
            OFFSET 0 0 0
          }
        }
      }
      JOINT ShoulderLeft
      {
        OFFSET -15.585435 -5.360212 8.536746
        CHANNELS 3 Zrotation Xrotation Yrotation
        JOINT ElbowLeft
        {
          OFFSET -3.057055 -27.631829 3.519289
          CHANNELS 3 Zrotation Xrotation Yrotation
          JOINT WristLeft
          {
            OFFSET 0.501861 -21.500704 -5.162830
            CHANNELS 3 Zrotation Xrotation Yrotation
            JOINT HandLeft
            {
              OFFSET -1.423888 -6.340561 -2.324163
              CHANNELS 3 Zrotation Xrotation Yrotation
              JOINT HandTipLeft
              {
                OFFSET 1.111086 -6.056671 -1.008807
                CHANNELS 3 Zrotation Xrotation Yrotation
                End Site
                {
                  OFFSET 0 0 0
                }
              }
              JOINT ThumbLeft
              {
                OFFSET -2.466483 -0.381420 -3.229428
                CHANNELS 3 Zrotation Xrotation Yrotation
                End Site
                {
                  OFFSET 0 0 0
                }
              }
            }
          }
        }
      }
      JOINT ShoulderRight
      {
        OFFSET 11.635977 -3.004123 -8.932086
        CHANNELS 3 Zrotation Xrotation Yrotation
        JOINT ElbowRight
        {
          OFFSET 9.814197 -24.737957 -4.272066
          CHANNELS 3 Zrotation Xrotation Yrotation
          JOINT WristRight
          {
            OFFSET -2.063755 -22.812876 -9.326875
            CHANNELS 3 Zrotation Xrotation Yrotation
            JOINT HandRight
            {
              OFFSET -3.253721 -4.243498 -2.127730
              CHANNELS 3 Zrotation Xrotation Yrotation
              JOINT HandTipRight
              {
                OFFSET -2.011894 -5.267780 -0.847388
                CHANNELS 3 Zrotation Xrotation Yrotation
                End Site
                {
                  OFFSET 0 0 0
                }
              }
              JOINT ThumbRight
              {
                OFFSET 1.811194 -0.634307 -3.100033
                CHANNELS 3 Zrotation Xrotation Yrotation
                End Site
                {
                  OFFSET 0 0 0
                }
              }
            }
          }
        }
      }
    }
  }
  JOINT HipLeft
  {
    OFFSET -6.531999 -0.061348 -0.075353
    CHANNELS 3 Zrotation Xrotation Yrotation
    JOINT KneeLeft
    {
      OFFSET 5.009684 -36.491629 5.682893
      CHANNELS 3 Zrotation Xrotation Yrotation
      JOINT AnkleLeft
      {
        OFFSET 8.020458 -35.325550 9.383505
        CHANNELS 3 Zrotation Xrotation Yrotation
        JOINT FootLeft
        {
          OFFSET -2.472337 -7.956925 -5.093475
          CHANNELS 3 Zrotation Xrotation Yrotation
          End Site
          {
            OFFSET 0 0 0
          }
        }
      }
    }
  }
  JOINT HipRight
  {
    OFFSET 7.267369 1.936343 -6.795400
    CHANNELS 3 Zrotation Xrotation Yrotation
    JOINT KneeRight
    {
      OFFSET 10.632264 -33.860024 -1.133055
      CHANNELS 3 Zrotation Xrotation Yrotation
      JOINT AnkleRight
      {
        OFFSET 9.060479 -36.951975 8.596010
        CHANNELS 3 Zrotation Xrotation Yrotation
        JOINT FootRight
        {
          OFFSET 0.341839 -8.287050 -4.880318
          CHANNELS 3 Zrotation Xrotation Yrotation
          End Site
          {
            OFFSET 0 0 0
          }
        }
      }
    }
  }
}
MOTION
Frames: 14
Frame Time: 0.033333
-34.538091 84.026562 322.995987 4.631831 3.966561 -11.389622 1.066743 0.515722 11.400628 0.742543 -0.354181 0.314884 -53.155188 -18.588739 -13.418022 0.000000 0.000000 0.000000 -38.953736 10.266529 -4.508740 -140.904276 38.737741 174.901670 48.428345 56.268251 -132.391001 11.139456 11.705882 -71.052758 0.000000 0.000000 0.000000 0.000000 0.000000 0.000000 -7.539188 -22.681305 -8.508003 113.566859 -14.807176 -83.901007 17.299142 -14.813158 82.073100 -3.823364 14.272664 17.298524 0.000000 0.000000 0.000000 0.000000 0.000000 0.000000 -3.120537 -4.166249 11.307135 0.398561 -0.664230 0.090742 8.412809 -1.934074 -5.827395 0.000000 0.000000 0.000000 -14.313332 14.484903 18.929020 8.089854 -20.272326 -3.521445 6.266116 25.056901 -6.914165 0.000000 0.000000 0.000000
-34.264588 84.128855 323.180480 5.265070 3.834522 -11.006482 0.756848 0.528850 10.996091 0.670903 -0.361372 0.321987 -52.057542 -18.991215 -13.707859 0.000000 0.000000 0.000000 -38.633666 10.010661 -4.507588 -135.355852 35.534631 160.761000 50.606176 63.882710 -126.538298 18.953903 8.434902 -77.787033 0.000000 0.000000 0.000000 0.000000 0.000000 0.000000 -7.032679 -22.788427 -8.533209 112.845292 -16.579203 -82.521324 17.361869 -12.780010 73.373037 -4.601356 15.863993 22.653757 0.000000 0.000000 0.000000 0.000000 0.000000 0.000000 -3.733266 -3.671544 10.966915 -0.149488 -1.198022 -0.120922 7.520961 0.203713 -5.590231 0.000000 0.000000 0.000000 -14.440988 14.828377 18.512627 7.748219 -19.918583 -3.451967 4.059037 26.839539 -5.497344 0.000000 0.000000 0.000000
-34.036489 84.210732 323.273924 5.658103 3.705997 -10.305179 0.524317 0.474895 10.284335 0.602930 -0.397771 0.323784 -49.986935 -19.018915 -13.401683 0.000000 0.000000 0.000000 -37.508238 8.036173 -4.658797 -135.853575 31.402704 157.133984 29.503589 62.926130 -111.115532 16.676650 19.173794 -81.837312 0.000000 0.000000 0.000000 0.000000 0.000000 0.000000 -6.236323 -21.860812 -8.128655 109.759396 -17.859336 -76.041445 21.105897 -6.748677 58.432853 -15.224001 16.626892 35.405170 0.000000 0.000000 0.000000 0.000000 0.000000 0.000000 -4.116919 -3.268167 10.304664 -1.034161 -1.208192 -0.337693 7.194413 1.527589 -5.236127 0.000000 0.000000 0.000000 -13.979437 14.496033 17.436992 7.555865 -18.142042 -3.025643 1.775067 26.453383 -4.163834 0.000000 0.000000 0.000000
-33.892004 84.272421 323.406434 5.804391 3.538171 -9.395411 0.140068 0.171947 9.370574 0.407433 -0.476279 0.295682 -46.508810 -18.572366 -12.425093 0.000000 0.000000 0.000000 -34.729300 5.729811 -4.523418 -137.582752 26.050179 152.985124 9.365188 56.919743 -91.144427 16.525404 29.781658 -95.274155 0.000000 0.000000 0.000000 0.000000 0.000000 0.000000 -5.125201 -19.756882 -7.334748 105.731713 -20.042351 -65.445269 20.343845 -9.399965 30.971022 -20.005629 14.227206 53.783387 0.000000 0.000000 0.000000 0.000000 0.000000 0.000000 -4.261926 -2.850397 9.444492 -1.146109 -1.401818 -0.384762 5.658082 3.509545 -4.865504 0.000000 0.000000 0.000000 -13.011495 13.600443 15.893044 7.382213 -15.274272 -2.367012 0.183379 25.300102 -3.431518 0.000000 0.000000 0.000000
-33.766901 84.305506 323.485435 5.723626 3.318261 -7.944158 -0.080234 0.055224 7.922170 0.300721 -0.440229 0.268583 -43.841580 -18.537991 -12.056738 0.000000 0.000000 0.000000 -32.112456 2.885898 -4.475668 -142.000827 20.041361 155.527897 1.839211 51.650585 -102.921821 6.054156 42.018530 -83.118974 0.000000 0.000000 0.000000 0.000000 0.000000 0.000000 -2.715720 -16.596871 -6.054529 100.584308 -21.508102 -53.764083 21.857048 -8.652708 15.769046 -24.683630 13.979416 54.070486 0.000000 0.000000 0.000000 0.000000 0.000000 0.000000 -4.203750 -2.440304 8.043649 -1.234515 -1.463084 -0.408681 4.332991 5.085259 -4.471755 0.000000 0.000000 0.000000 -11.814542 12.352486 13.679392 7.351248 -11.871656 -1.598564 -0.672309 24.861408 -3.200682 0.000000 0.000000 0.000000
-33.694390 84.269430 323.444605 5.216793 2.882352 -5.999679 -0.320988 -0.264858 5.999335 0.061447 -0.512965 0.216642 -39.447294 -17.623949 -10.746660 0.000000 0.000000 0.000000 -29.148217 -0.253454 -4.155131 -144.181246 12.951187 153.370330 -4.868148 53.639167 -130.588902 -28.871836 59.844542 -54.507968 0.000000 0.000000 0.000000 0.000000 0.000000 0.000000 0.313715 -12.951002 -4.926119 92.695476 -18.636150 -45.826374 30.636368 -6.100472 15.698734 -30.287951 15.548564 41.587587 0.000000 0.000000 0.000000 0.000000 0.000000 0.000000 -3.764169 -1.798669 6.177817 -1.295803 -1.470788 -0.420175 3.455737 5.824720 -4.103087 0.000000 0.000000 0.000000 -10.191214 11.259177 11.017970 7.098497 -8.485759 -0.927277 -0.524857 26.055386 -3.421419 0.000000 0.000000 0.000000
-33.588189 84.131838 323.284338 4.456462 2.201631 -3.855723 -0.559979 -0.593782 3.882547 -0.101310 -0.574243 0.164427 -34.178908 -16.292303 -9.257082 0.000000 0.000000 0.000000 -25.915107 -2.984915 -3.625973 -140.140278 1.690881 128.725153 1.487095 64.743391 174.435939 -70.676552 22.630670 -4.577010 0.000000 0.000000 0.000000 0.000000 0.000000 0.000000 2.989874 -9.317111 -4.073367 83.436123 -13.316057 -41.064987 39.357215 -5.355592 19.737932 -30.744787 17.813900 30.657970 0.000000 0.000000 0.000000 0.000000 0.000000 0.000000 -3.144126 -0.915468 4.112319 -1.267567 -1.487275 -0.417839 2.774752 6.386352 -3.808970 0.000000 0.000000 0.000000 -8.531887 10.544187 8.299503 6.893701 -5.649262 -0.356219 0.009608 17.931615 -4.174332 0.000000 0.000000 0.000000
-33.529597 83.955227 323.132670 3.648260 1.547875 -1.591570 -0.799704 -0.873638 1.631869 -0.205707 -0.592302 0.115740 -29.120835 -15.222414 -8.279750 0.000000 0.000000 0.000000 -22.575709 -5.469150 -3.054372 -137.479490 -10.552004 99.523398 -6.144589 65.110324 159.446085 -61.053749 -3.286642 3.917413 0.000000 0.000000 0.000000 0.000000 0.000000 0.000000 6.185737 -6.720752 -3.732604 72.849939 -7.304444 -37.656189 38.858996 -8.864645 16.855420 -27.583024 14.742560 31.366459 0.000000 0.000000 0.000000 0.000000 0.000000 0.000000 -2.476851 0.053893 1.918297 -1.184790 -1.660597 -0.429313 2.447158 6.443519 -3.601627 0.000000 0.000000 0.000000 -6.999299 10.099873 5.592096 6.723550 -3.549361 0.067125 -2.164992 14.249707 -3.124920 0.000000 0.000000 0.000000
-33.442841 83.722894 323.095343 2.621630 0.378771 0.605810 -0.967652 -1.022777 -0.550200 -0.243995 -0.522351 0.068730 -23.822295 -13.357553 -7.012862 0.000000 0.000000 0.000000 -20.064023 -6.887907 -2.472237 -134.760786 -20.345675 69.667212 -53.398642 25.668365 -79.563891 -75.600301 59.250940 -37.343282 0.000000 0.000000 0.000000 0.000000 0.000000 0.000000 7.473626 -4.038873 -3.406087 62.912934 -0.515158 -34.675065 36.838685 -12.634308 8.157251 -25.636483 12.202266 29.880985 0.000000 0.000000 0.000000 0.000000 0.000000 0.000000 -1.553591 1.699175 -0.187965 -0.907234 -2.859408 -0.598117 1.952821 7.356107 -3.306341 0.000000 0.000000 0.000000 -5.448488 10.831781 3.265129 6.583466 -2.881953 0.185695 -3.793221 5.852243 -2.650999 0.000000 0.000000 0.000000
-33.330335 83.392768 322.672948 1.437101 -0.671371 3.372169 -0.944894 -1.056339 -3.327836 -0.181957 -0.485262 0.030890 -19.242701 -11.423862 -5.957673 0.000000 0.000000 0.000000 -19.229893 -9.462559 -2.300322 -129.598824 -22.455829 65.059714 -60.062409 20.464021 -49.812630 43.713848 83.906702 -174.444288 0.000000 0.000000 0.000000 0.000000 0.000000 0.000000 7.354905 -1.774048 -2.956203 51.869251 7.535910 -30.929215 38.005887 -15.155154 4.190513 -26.244606 11.917894 23.847442 0.000000 0.000000 0.000000 0.000000 0.000000 0.000000 -0.139584 2.906846 -2.913322 -1.028529 -3.208369 -0.689963 1.745434 7.355278 -3.033384 0.000000 0.000000 0.000000 -3.482760 11.233901 0.224881 6.278577 -2.377000 0.242350 -4.459019 3.463705 -2.290908 0.000000 0.000000 0.000000
-33.094508 83.045589 321.920418 0.457186 -1.372417 6.108829 -0.665654 -0.839227 -6.089443 -0.070609 -0.321579 0.009024 -16.492749 -10.584657 -5.564286 0.000000 0.000000 0.000000 -22.015494 -10.831622 -2.920245 -127.490836 -26.313520 61.916499 -66.419908 29.812681 -76.387893 -63.655198 60.327219 -36.724345 0.000000 0.000000 0.000000 0.000000 0.000000 0.000000 6.010588 -0.968253 -2.488796 41.069959 15.367910 -26.402349 33.054057 -16.635161 0.113818 -21.608518 12.547673 17.276652 0.000000 0.000000 0.000000 0.000000 0.000000 0.000000 0.960407 3.372188 -5.702023 -1.070846 -3.302499 -0.745922 1.858527 6.774993 -2.713100 0.000000 0.000000 0.000000 -1.888311 10.881174 -2.920280 6.103091 -1.743963 0.339081 -5.096558 3.877664 -1.713900 0.000000 0.000000 0.000000
-32.911599 82.711080 321.183800 -0.501307 -1.995849 9.386510 -0.649319 -0.950203 -9.410155 0.051206 -0.444714 -0.017650 -13.304338 -8.543742 -4.672235 0.000000 0.000000 0.000000 -23.337327 -10.182272 -2.971285 -125.946109 -22.085775 76.717348 -54.141519 24.938958 -57.984267 -12.276158 73.031671 -95.791358 0.000000 0.000000 0.000000 0.000000 0.000000 0.000000 4.490614 0.363473 -1.959236 29.189656 21.806464 -19.880954 22.023942 -16.759598 -2.973816 -12.441938 12.583143 10.855052 0.000000 0.000000 0.000000 0.000000 0.000000 0.000000 2.362547 3.797448 -9.003306 -1.419973 -3.525212 -0.879796 2.251693 5.695920 -2.391359 0.000000 0.000000 0.000000 -0.053356 10.532689 -6.589139 5.591011 -1.569404 0.286669 -5.639823 8.540308 -0.697424 0.000000 0.000000 0.000000
-32.329111 82.362717 320.313609 -1.038619 -2.595000 12.249193 -0.643887 -0.949254 -12.302342 0.025470 -0.595429 -0.036677 -11.206714 -6.785002 -3.993405 0.000000 0.000000 0.000000 -23.440752 -11.176903 -2.941790 -125.485041 -12.582114 101.219825 -35.509851 16.969311 -56.018874 20.195247 74.145959 -157.027314 0.000000 0.000000 0.000000 0.000000 0.000000 0.000000 1.394764 2.575428 -0.659115 15.586636 23.086626 -10.417810 18.094139 -14.804592 -6.306622 -5.889703 9.746956 7.985085 0.000000 0.000000 0.000000 0.000000 0.000000 0.000000 2.597180 4.137584 -11.991083 -1.077184 -3.696962 -0.905612 2.514345 4.610614 -1.847028 0.000000 0.000000 0.000000 1.015076 10.191819 -9.776951 5.200496 -1.538257 0.185858 -6.086916 7.950199 0.008356 0.000000 0.000000 0.000000
-31.481190 82.046559 319.476454 -1.155149 -3.112881 14.578709 -0.649594 -0.805735 -14.638257 -0.100381 -0.718930 -0.044969 -9.977058 -5.236224 -3.355532 0.000000 0.000000 0.000000 -22.851688 -12.398896 -2.843519 -123.359420 -6.558696 107.049653 -60.155920 27.580128 -114.005150 -95.276124 41.141975 -46.657130 0.000000 0.000000 0.000000 0.000000 0.000000 0.000000 -2.861325 4.823611 1.192419 5.438158 20.192880 -2.935055 12.705736 -12.814468 -6.499518 -0.749328 8.501626 3.022923 0.000000 0.000000 0.000000 0.000000 0.000000 0.000000 1.867741 4.762572 -14.468197 -0.212981 -4.037498 -0.882565 2.844468 3.802930 -1.341805 0.000000 0.000000 0.000000 1.414271 10.088090 -12.310018 4.918507 -1.779236 0.015459 -6.441260 6.514964 0.650632 0.000000 0.000000 0.000000
